<svg width="100" height="29" viewBox="0 0 100 29" fill="none" xmlns="http://www.w3.org/2000/svg">

<g>
<path d="M54.2106 8.42383H54.0371V8.59558V27.6486V27.8203H54.2106H59.8361H60.0078V27.6486V8.59558V8.42383H59.8361H54.2106Z" fill="#000"/>
<path d="M54.2106 0H54.0371V0.169991V5.50454V5.67628H54.2106H59.8361H60.0078V5.50454V0.169991V0H59.8361H54.2106Z" fill="#000"/>
<path d="M45.0192 8.31909H44.8474V10.005H44.3742C44.348 9.97693 44.3217 9.94714 44.2954 9.92085C43.0283 8.59773 41.3232 8.02292 40.121 7.93354C39.8967 7.92127 39.7162 7.91602 39.5479 7.91602C39.5076 7.91602 39.4848 7.91602 39.4708 7.91952H39.455C33.6894 7.95983 28.998 12.497 28.998 18.0453C28.998 20.6758 30.0407 23.1678 31.9369 25.0623C33.9435 27.0671 36.6423 28.1712 39.5321 28.1712C39.8196 28.1712 40.121 28.1572 40.489 28.1256C41.034 28.0538 42.8917 27.7033 44.376 26.0927H44.8492V27.7155H50.2398V8.31909H45.0209H45.0192ZM44.9824 18.0383C44.9824 21.0719 42.5377 23.5411 39.5304 23.5411C38.0846 23.5411 36.7212 22.9768 35.6942 21.9481C34.6515 20.9071 34.0784 19.5192 34.0784 18.0383C34.0784 16.5575 34.6515 15.1713 35.6942 14.1286C36.7229 13.1016 38.0864 12.5356 39.5304 12.5356C40.9744 12.5356 42.3396 13.1016 43.3666 14.1286C44.4093 15.1713 44.9824 16.5575 44.9824 18.0383Z" fill="#000"/>
<path d="M99.8944 9.84334L97.3708 5.6076L97.2605 5.47266L97.1273 5.58307C91.2547 9.12833 88.2948 11.9131 87.9688 16.4222V27.8221H93.8204V16.8761C93.8361 13.6743 95.9952 12.5387 99.8717 10.087L99.9995 10.0134L99.8944 9.84334Z" fill="#000"/>
<path d="M84.6398 19.295L84.6766 19.0409C84.7362 18.6448 84.7713 18.3854 84.7713 17.9456C84.7713 15.2853 83.7198 12.767 81.8025 10.8533C79.7784 8.82746 77.0533 7.71289 74.1319 7.71289C68.2646 7.71289 63.4961 12.3026 63.4961 17.9456C63.4961 20.6006 64.5494 23.1189 66.4649 25.0326C68.489 27.0567 71.1405 28.1713 74.1197 28.1713C78.0067 28.1713 81.6238 26.1682 83.5393 23.0085C83.6356 22.8525 83.7198 22.6966 83.7986 22.5371L79.4963 21.0194C79.435 21.1281 79.3754 21.2402 79.3035 21.3419C78.1662 22.8403 76.6801 23.911 74.5035 23.911C71.5488 23.911 69.1742 21.9815 68.6169 19.2932H84.6381L84.6398 19.295ZM74.3282 11.9574C76.9219 11.9574 79.1633 13.5679 79.8923 15.9004H68.7659C69.593 13.4995 71.7346 11.9574 74.3282 11.9574Z" fill="#000"/>
<path d="M19.0354 0.43457V11.3105H6.6051V0.43457H0V27.8206H6.6051V16.3611H19.0354V27.8206H25.6388V0.43457H19.0354Z" fill="#000"/>
</g>
</svg>
